<?xml version="1.0" encoding="UTF-8" standalone="no"?>
<!DOCTYPE svg PUBLIC "-//W3C//DTD SVG 1.1//EN"
 "http://www.w3.org/Graphics/SVG/1.1/DTD/svg11.dtd">
<!-- Generated by graphviz version 2.47.0 (20210316.0004)
 -->
<!-- Title: dependencies Pages: 1 -->
<svg width="1557pt" height="284pt"
 viewBox="0.00 0.00 1557.00 284.00" xmlns="http://www.w3.org/2000/svg" xmlns:xlink="http://www.w3.org/1999/xlink">
<g id="graph0" class="graph" transform="scale(1 1) rotate(0) translate(4 280)">
<title>dependencies</title>
<polygon fill="white" stroke="transparent" points="-4,4 -4,-280 1553,-280 1553,4 -4,4"/>
<text text-anchor="start" x="753.51" y="-42.4" font-family="Times-12" font-weight="bold" font-size="14.00">Legend</text>
<polygon fill="#ffffb3" stroke="transparent" points="540.5,-10 540.5,-30 560.5,-30 560.5,-10 540.5,-10"/>
<text text-anchor="start" x="564.13" y="-15.4" font-family="Times-12" font-size="14.00"> &#160;Declarations</text>
<polygon fill="#8dd3c7" stroke="transparent" points="653.5,-10 653.5,-30 673.5,-30 673.5,-10 653.5,-10"/>
<text text-anchor="start" x="677.23" y="-15.4" font-family="Times-12" font-size="14.00"> &#160;Module</text>
<polygon fill="#80b1d3" stroke="transparent" points="739.5,-10 739.5,-30 759.5,-30 759.5,-10 739.5,-10"/>
<text text-anchor="start" x="763.28" y="-15.4" font-family="Times-12" font-size="14.00"> &#160;Bootstrap</text>
<polygon fill="#fdb462" stroke="transparent" points="836.5,-10 836.5,-30 856.5,-30 856.5,-10 836.5,-10"/>
<text text-anchor="start" x="860.17" y="-15.4" font-family="Times-12" font-size="14.00"> &#160;Providers</text>
<polygon fill="#fb8072" stroke="transparent" points="932.5,-10 932.5,-30 952.5,-30 952.5,-10 932.5,-10"/>
<text text-anchor="start" x="956.23" y="-15.4" font-family="Times-12" font-size="14.00"> &#160;Exports</text>
<g id="clust1" class="cluster">
<title>cluster_AppModule</title>
<polygon fill="none" stroke="black" stroke-dasharray="1,5" points="8,-70 8,-268 1541,-268 1541,-70 8,-70"/>
</g>
<g id="clust2" class="cluster">
<title>cluster_AppModule_declarations</title>
<polygon fill="none" stroke="black" points="392,-78 392,-130 1533,-130 1533,-78 392,-78"/>
</g>
<g id="clust11" class="cluster">
<title>cluster_AppModule_imports</title>
<polygon fill="none" stroke="black" points="240,-78 240,-130 384,-130 384,-78 240,-78"/>
</g>
<g id="clust14" class="cluster">
<title>cluster_AppModule_providers</title>
<polygon fill="none" stroke="black" points="16,-78 16,-130 232,-130 232,-78 16,-78"/>
</g>
<g id="clust13" class="cluster">
<title>cluster_AppModule_bootstrap</title>
<polygon fill="none" stroke="black" points="783,-208 783,-260 907,-260 907,-208 783,-208"/>
</g>
<!-- ActivateSimComponent -->
<g id="node1" class="node">
<title>ActivateSimComponent</title>
<polygon fill="#ffffb3" stroke="black" points="1524.82,-122 1373.18,-122 1373.18,-86 1524.82,-86 1524.82,-122"/>
<text text-anchor="middle" x="1449" y="-99.8" font-family="Times,serif" font-size="14.00">ActivateSimComponent</text>
</g>
<!-- AppModule -->
<g id="node9" class="node">
<title>AppModule</title>
<polygon fill="#8dd3c7" stroke="black" points="886.66,-187 883.66,-191 862.66,-191 859.66,-187 803.34,-187 803.34,-151 886.66,-151 886.66,-187"/>
<text text-anchor="middle" x="845" y="-164.8" font-family="Times,serif" font-size="14.00">AppModule</text>
</g>
<!-- ActivateSimComponent&#45;&gt;AppModule -->
<g id="edge1" class="edge">
<title>ActivateSimComponent&#45;&gt;AppModule</title>
<path fill="none" stroke="black" d="M1449,-122.01C1449,-144.49 1449,-180 1449,-180 1449,-180 896.99,-180 896.99,-180"/>
<polygon fill="black" stroke="black" points="896.99,-176.5 886.99,-180 896.99,-183.5 896.99,-176.5"/>
</g>
<!-- AppComponent -->
<g id="node2" class="node">
<title>AppComponent</title>
<polygon fill="#ffffb3" stroke="black" points="1355.94,-122 1250.06,-122 1250.06,-86 1355.94,-86 1355.94,-122"/>
<text text-anchor="middle" x="1303" y="-99.8" font-family="Times,serif" font-size="14.00">AppComponent</text>
</g>
<!-- AppComponent&#45;&gt;AppModule -->
<g id="edge2" class="edge">
<title>AppComponent&#45;&gt;AppModule</title>
<path fill="none" stroke="black" d="M1303,-122.13C1303,-142.57 1303,-173 1303,-173 1303,-173 896.86,-173 896.86,-173"/>
<polygon fill="black" stroke="black" points="896.86,-169.5 886.86,-173 896.86,-176.5 896.86,-169.5"/>
</g>
<!-- BillComponent -->
<g id="node3" class="node">
<title>BillComponent</title>
<polygon fill="#ffffb3" stroke="black" points="1232.34,-122 1129.66,-122 1129.66,-86 1232.34,-86 1232.34,-122"/>
<text text-anchor="middle" x="1181" y="-99.8" font-family="Times,serif" font-size="14.00">BillComponent</text>
</g>
<!-- BillComponent&#45;&gt;AppModule -->
<g id="edge3" class="edge">
<title>BillComponent&#45;&gt;AppModule</title>
<path fill="none" stroke="black" d="M1181,-122.27C1181,-140.56 1181,-166 1181,-166 1181,-166 896.88,-166 896.88,-166"/>
<polygon fill="black" stroke="black" points="896.88,-162.5 886.88,-166 896.88,-169.5 896.88,-162.5"/>
</g>
<!-- HomeComponent -->
<g id="node4" class="node">
<title>HomeComponent</title>
<polygon fill="#ffffb3" stroke="black" points="1111.55,-122 996.45,-122 996.45,-86 1111.55,-86 1111.55,-122"/>
<text text-anchor="middle" x="1054" y="-99.8" font-family="Times,serif" font-size="14.00">HomeComponent</text>
</g>
<!-- HomeComponent&#45;&gt;AppModule -->
<g id="edge4" class="edge">
<title>HomeComponent&#45;&gt;AppModule</title>
<path fill="none" stroke="black" d="M1054,-122.01C1054,-138.05 1054,-159 1054,-159 1054,-159 896.79,-159 896.79,-159"/>
<polygon fill="black" stroke="black" points="896.79,-155.5 886.79,-159 896.79,-162.5 896.79,-155.5"/>
</g>
<!-- LoginComponent -->
<g id="node5" class="node">
<title>LoginComponent</title>
<polygon fill="#ffffb3" stroke="black" points="978.28,-122 863.72,-122 863.72,-86 978.28,-86 978.28,-122"/>
<text text-anchor="middle" x="921" y="-99.8" font-family="Times,serif" font-size="14.00">LoginComponent</text>
</g>
<!-- LoginComponent&#45;&gt;AppModule -->
<g id="edge5" class="edge">
<title>LoginComponent&#45;&gt;AppModule</title>
<path fill="none" stroke="black" d="M875.22,-122.11C875.22,-122.11 875.22,-140.99 875.22,-140.99"/>
<polygon fill="black" stroke="black" points="871.72,-140.99 875.22,-150.99 878.72,-140.99 871.72,-140.99"/>
</g>
<!-- MobilePlansComponent -->
<g id="node6" class="node">
<title>MobilePlansComponent</title>
<polygon fill="#ffffb3" stroke="black" points="846.11,-122 693.89,-122 693.89,-86 846.11,-86 846.11,-122"/>
<text text-anchor="middle" x="770" y="-99.8" font-family="Times,serif" font-size="14.00">MobilePlansComponent</text>
</g>
<!-- MobilePlansComponent&#45;&gt;AppModule -->
<g id="edge6" class="edge">
<title>MobilePlansComponent&#45;&gt;AppModule</title>
<path fill="none" stroke="black" d="M824.61,-122.11C824.61,-122.11 824.61,-140.99 824.61,-140.99"/>
<polygon fill="black" stroke="black" points="821.11,-140.99 824.61,-150.99 828.11,-140.99 821.11,-140.99"/>
</g>
<!-- PaymentComponent -->
<g id="node7" class="node">
<title>PaymentComponent</title>
<polygon fill="#ffffb3" stroke="black" points="676.33,-122 545.67,-122 545.67,-86 676.33,-86 676.33,-122"/>
<text text-anchor="middle" x="611" y="-99.8" font-family="Times,serif" font-size="14.00">PaymentComponent</text>
</g>
<!-- PaymentComponent&#45;&gt;AppModule -->
<g id="edge7" class="edge">
<title>PaymentComponent&#45;&gt;AppModule</title>
<path fill="none" stroke="black" d="M611,-122.01C611,-138.05 611,-159 611,-159 611,-159 793.17,-159 793.17,-159"/>
<polygon fill="black" stroke="black" points="793.17,-162.5 803.17,-159 793.17,-155.5 793.17,-162.5"/>
</g>
<!-- SimcardComponent -->
<g id="node8" class="node">
<title>SimcardComponent</title>
<polygon fill="#ffffb3" stroke="black" points="527.99,-122 400.01,-122 400.01,-86 527.99,-86 527.99,-122"/>
<text text-anchor="middle" x="464" y="-99.8" font-family="Times,serif" font-size="14.00">SimcardComponent</text>
</g>
<!-- SimcardComponent&#45;&gt;AppModule -->
<g id="edge8" class="edge">
<title>SimcardComponent&#45;&gt;AppModule</title>
<path fill="none" stroke="black" d="M464,-122.27C464,-140.56 464,-166 464,-166 464,-166 793.14,-166 793.14,-166"/>
<polygon fill="black" stroke="black" points="793.14,-169.5 803.14,-166 793.14,-162.5 793.14,-169.5"/>
</g>
<!-- AppComponent  -->
<g id="node11" class="node">
<title>AppComponent </title>
<polygon fill="#80b1d3" stroke="black" points="899.44,-252 790.56,-252 790.56,-216 899.44,-216 899.44,-252"/>
<text text-anchor="middle" x="845" y="-229.8" font-family="Times,serif" font-size="14.00">AppComponent </text>
</g>
<!-- AppModule&#45;&gt;AppComponent  -->
<g id="edge10" class="edge">
<title>AppModule&#45;&gt;AppComponent </title>
<path fill="none" stroke="black" stroke-dasharray="1,5" d="M845,-187.11C845,-187.11 845,-205.99 845,-205.99"/>
<polygon fill="black" stroke="black" points="841.5,-205.99 845,-215.99 848.5,-205.99 841.5,-205.99"/>
</g>
<!-- AppRoutingModule -->
<g id="node10" class="node">
<title>AppRoutingModule</title>
<polygon fill="#8dd3c7" stroke="black" points="376.27,-122 373.27,-126 352.27,-126 349.27,-122 247.73,-122 247.73,-86 376.27,-86 376.27,-122"/>
<text text-anchor="middle" x="312" y="-99.8" font-family="Times,serif" font-size="14.00">AppRoutingModule</text>
</g>
<!-- AppRoutingModule&#45;&gt;AppModule -->
<g id="edge9" class="edge">
<title>AppRoutingModule&#45;&gt;AppModule</title>
<path fill="none" stroke="black" d="M312,-122.13C312,-142.57 312,-173 312,-173 312,-173 793.18,-173 793.18,-173"/>
<polygon fill="black" stroke="black" points="793.18,-176.5 803.18,-173 793.18,-169.5 793.18,-176.5"/>
</g>
<!-- HttpInterceptorService -->
<g id="node12" class="node">
<title>HttpInterceptorService</title>
<ellipse fill="#fdb462" stroke="black" cx="124" cy="-104" rx="99.53" ry="18"/>
<text text-anchor="middle" x="124" y="-99.8" font-family="Times,serif" font-size="14.00">HttpInterceptorService</text>
</g>
<!-- HttpInterceptorService&#45;&gt;AppModule -->
<g id="edge11" class="edge">
<title>HttpInterceptorService&#45;&gt;AppModule</title>
<path fill="none" stroke="black" d="M124,-122.01C124,-144.49 124,-180 124,-180 124,-180 793.12,-180 793.12,-180"/>
<polygon fill="black" stroke="black" points="793.12,-183.5 803.12,-180 793.12,-176.5 793.12,-183.5"/>
</g>
</g>
</svg>
